<?xml version="1.0" encoding="utf-8"?>
<!-- Generator: Adobe Illustrator 25.3.1, SVG Export Plug-In . SVG Version: 6.00 Build 0)  -->
<svg version="1.1" id="Layer_1" xmlns="http://www.w3.org/2000/svg" xmlns:xlink="http://www.w3.org/1999/xlink" x="0px" y="0px"
	 viewBox="0 0 50 50" style="enable-background:new 0 0 50 50;" xml:space="preserve">
<style type="text/css">
	.st0{fill-rule:evenodd;clip-rule:evenodd;fill:#FFFFFF;}
</style>
<path class="st0" d="M36.5,42.5h-23c-1.7,0-3-1.4-3-3V24.4c0-1.7,1.7-3,3.4-3v-3.8c0-6.1,4.3-11.1,10.4-11.1h1.6
	c6.1,0,10.4,5,10.4,11.1v3.8c1.6,0.1,3.3,1.4,3.3,3v15.1C39.6,41.1,38.2,42.5,36.5,42.5z M33.1,17.7c0-4.5-3.1-8.3-7.8-8.3h-0.4
	c-4.7,0-7.8,3.8-7.8,8.3v3.6h16V17.7z M36.7,25.7c0-0.8-0.7-1.5-1.5-1.5H14.8c-0.8,0-1.5,0.7-1.5,1.5v12.4c0,0.8,0.7,1.5,1.5,1.5
	h20.4c0.8,0,1.5-0.7,1.5-1.5V25.7z"/>
</svg>
